<mxfile host="app.diagrams.net" agent="Mozilla/5.0 (Macintosh; Intel Mac OS X 10_15_7) AppleWebKit/537.36 (KHTML, like Gecko) Chrome/130.0.0.0 Safari/537.36" version="24.8.3">
  <diagram name="Page-1" id="v19jtzvjF3UOeUyKX69d">
    <mxGraphModel grid="1" page="1" gridSize="10" guides="1" tooltips="1" connect="1" arrows="1" fold="1" pageScale="1" pageWidth="827" pageHeight="1169" math="0" shadow="0">
      <root>
        <mxCell id="0" />
        <mxCell id="1" parent="0" />
        <mxCell id="Ln8zN0HA3ZuwD0kx-WDb-10" value="" style="endArrow=none;html=1;rounded=0;" edge="1" parent="1">
          <mxGeometry width="50" height="50" relative="1" as="geometry">
            <mxPoint x="640" y="1860" as="sourcePoint" />
            <mxPoint x="640" y="-160" as="targetPoint" />
          </mxGeometry>
        </mxCell>
        <mxCell id="zY7k--wOiJBElIzQp6EA-57" style="rounded=0;orthogonalLoop=1;jettySize=auto;html=1;entryX=0;entryY=0.5;entryDx=0;entryDy=0;strokeColor=default;endArrow=none;endFill=0;" edge="1" parent="1" source="FGRV-jPOa7Bt_ttK2mDu-4" target="vSEJAMV8AOCwIulH-8fq-99">
          <mxGeometry relative="1" as="geometry">
            <mxPoint x="-300" y="420" as="sourcePoint" />
          </mxGeometry>
        </mxCell>
        <mxCell id="FGRV-jPOa7Bt_ttK2mDu-4" value="User" style="shape=umlActor;verticalLabelPosition=bottom;verticalAlign=top;html=1;outlineConnect=0;fontSize=20;" vertex="1" parent="1">
          <mxGeometry x="-280" y="600" width="60" height="120" as="geometry" />
        </mxCell>
        <mxCell id="RjbsoYbdOa2Ps-iQJeub-9" value="" style="endArrow=none;html=1;rounded=0;exitX=1;exitY=0.5;exitDx=0;exitDy=0;endFill=0;" edge="1" parent="1" source="vSEJAMV8AOCwIulH-8fq-8" target="6liUaRjq4ee-JJZJIJKL-24">
          <mxGeometry width="50" height="50" relative="1" as="geometry">
            <mxPoint x="584.2511191335809" y="-22.569949902409462" as="sourcePoint" />
            <mxPoint x="310" y="240" as="targetPoint" />
          </mxGeometry>
        </mxCell>
        <mxCell id="FGRV-jPOa7Bt_ttK2mDu-29" style="rounded=0;orthogonalLoop=1;jettySize=auto;html=1;entryX=0.042;entryY=0.32;entryDx=0;entryDy=0;endArrow=none;endFill=0;entryPerimeter=0;" edge="1" parent="1" source="FGRV-jPOa7Bt_ttK2mDu-4" target="SEIKMSco89WO36H-kESX-22">
          <mxGeometry relative="1" as="geometry">
            <Array as="points">
              <mxPoint x="200" y="250" />
            </Array>
          </mxGeometry>
        </mxCell>
        <mxCell id="FGRV-jPOa7Bt_ttK2mDu-28" style="rounded=0;orthogonalLoop=1;jettySize=auto;html=1;entryX=0;entryY=0.5;entryDx=0;entryDy=0;endArrow=none;endFill=0;" edge="1" parent="1" source="FGRV-jPOa7Bt_ttK2mDu-4" target="vSEJAMV8AOCwIulH-8fq-10">
          <mxGeometry relative="1" as="geometry" />
        </mxCell>
        <mxCell id="u9TTm9YRt9H3GNrM990v-3" value="" style="endArrow=none;html=1;rounded=0;exitX=1;exitY=0.5;exitDx=0;exitDy=0;entryX=0;entryY=0.3333333333333333;entryDx=0;entryDy=0;entryPerimeter=0;endFill=0;" edge="1" parent="1" source="vSEJAMV8AOCwIulH-8fq-127" target="6liUaRjq4ee-JJZJIJKL-23">
          <mxGeometry width="50" height="50" relative="1" as="geometry">
            <mxPoint x="390" y="1330" as="sourcePoint" />
            <mxPoint x="880" y="1330" as="targetPoint" />
          </mxGeometry>
        </mxCell>
        <mxCell id="zY7k--wOiJBElIzQp6EA-13" value="" style="group" connectable="0" vertex="1" parent="1">
          <mxGeometry x="100" y="350" width="520" height="260" as="geometry" />
        </mxCell>
        <mxCell id="zY7k--wOiJBElIzQp6EA-14" value="" style="endArrow=none;html=1;rounded=0;" edge="1" parent="zY7k--wOiJBElIzQp6EA-13">
          <mxGeometry width="50" height="50" relative="1" as="geometry">
            <mxPoint y="260" as="sourcePoint" />
            <mxPoint as="targetPoint" />
          </mxGeometry>
        </mxCell>
        <mxCell id="zY7k--wOiJBElIzQp6EA-15" value="" style="endArrow=none;html=1;rounded=0;" edge="1" parent="zY7k--wOiJBElIzQp6EA-13">
          <mxGeometry width="50" height="50" relative="1" as="geometry">
            <mxPoint y="260" as="sourcePoint" />
            <mxPoint x="520" y="260" as="targetPoint" />
          </mxGeometry>
        </mxCell>
        <mxCell id="zY7k--wOiJBElIzQp6EA-16" value="" style="endArrow=none;html=1;rounded=0;" edge="1" parent="zY7k--wOiJBElIzQp6EA-13">
          <mxGeometry width="50" height="50" relative="1" as="geometry">
            <mxPoint x="520" y="260" as="sourcePoint" />
            <mxPoint x="520" as="targetPoint" />
          </mxGeometry>
        </mxCell>
        <mxCell id="zY7k--wOiJBElIzQp6EA-17" value="" style="endArrow=none;html=1;rounded=0;" edge="1" parent="zY7k--wOiJBElIzQp6EA-13">
          <mxGeometry width="50" height="50" relative="1" as="geometry">
            <mxPoint as="sourcePoint" />
            <mxPoint x="520" as="targetPoint" />
          </mxGeometry>
        </mxCell>
        <mxCell id="zY7k--wOiJBElIzQp6EA-19" value="Review System" style="text;html=1;align=center;verticalAlign=middle;whiteSpace=wrap;rounded=0;" vertex="1" parent="zY7k--wOiJBElIzQp6EA-13">
          <mxGeometry x="125.11075199999999" y="11.05" width="277.993248" height="12" as="geometry" />
        </mxCell>
        <mxCell id="zY7k--wOiJBElIzQp6EA-21" value="Rate Service/Product" style="ellipse;whiteSpace=wrap;html=1;fillColor=#e1d5e7;strokeColor=#9673a6;" vertex="1" parent="zY7k--wOiJBElIzQp6EA-13">
          <mxGeometry x="340" y="113.27739130434786" width="144.49759999999998" height="63.28173913043477" as="geometry" />
        </mxCell>
        <mxCell id="IPIbO-tEIP0OXKtyJFdB-2" value="Review Item/Service Condition" style="ellipse;whiteSpace=wrap;html=1;fillColor=#e1d5e7;strokeColor=#9673a6;" vertex="1" parent="zY7k--wOiJBElIzQp6EA-13">
          <mxGeometry x="39.99799999999999" y="171.19826086956522" width="147.38755199999994" height="63.28173913043477" as="geometry" />
        </mxCell>
        <mxCell id="FGRV-jPOa7Bt_ttK2mDu-68" style="rounded=0;orthogonalLoop=1;jettySize=auto;html=1;exitX=1;exitY=1;exitDx=0;exitDy=0;dashed=1;" edge="1" parent="zY7k--wOiJBElIzQp6EA-13" source="IPIbO-tEIP0OXKtyJFdB-3" target="zY7k--wOiJBElIzQp6EA-21">
          <mxGeometry relative="1" as="geometry" />
        </mxCell>
        <mxCell id="FGRV-jPOa7Bt_ttK2mDu-69" value="&amp;lt;&amp;lt;include&amp;gt;&amp;gt;" style="edgeLabel;html=1;align=center;verticalAlign=middle;resizable=0;points=[];" connectable="0" vertex="1" parent="FGRV-jPOa7Bt_ttK2mDu-68">
          <mxGeometry x="-0.0722" relative="1" as="geometry">
            <mxPoint x="20" as="offset" />
          </mxGeometry>
        </mxCell>
        <mxCell id="FGRV-jPOa7Bt_ttK2mDu-70" style="rounded=0;orthogonalLoop=1;jettySize=auto;html=1;dashed=1;" edge="1" parent="zY7k--wOiJBElIzQp6EA-13" source="IPIbO-tEIP0OXKtyJFdB-3" target="IPIbO-tEIP0OXKtyJFdB-2">
          <mxGeometry relative="1" as="geometry" />
        </mxCell>
        <mxCell id="FGRV-jPOa7Bt_ttK2mDu-71" value="&amp;lt;&amp;lt;include&amp;gt;&amp;gt;" style="edgeLabel;html=1;align=center;verticalAlign=middle;resizable=0;points=[];" connectable="0" vertex="1" parent="FGRV-jPOa7Bt_ttK2mDu-70">
          <mxGeometry x="0.3168" y="-1" relative="1" as="geometry">
            <mxPoint as="offset" />
          </mxGeometry>
        </mxCell>
        <mxCell id="IPIbO-tEIP0OXKtyJFdB-3" value="Submit Review" style="ellipse;whiteSpace=wrap;html=1;fillColor=#e1d5e7;strokeColor=#9673a6;" vertex="1" parent="zY7k--wOiJBElIzQp6EA-13">
          <mxGeometry x="140.002" y="49.99826086956523" width="147.38755199999994" height="63.28173913043477" as="geometry" />
        </mxCell>
        <mxCell id="FGRV-jPOa7Bt_ttK2mDu-48" style="rounded=0;orthogonalLoop=1;jettySize=auto;html=1;endArrow=none;endFill=0;exitX=1;exitY=0;exitDx=0;exitDy=0;" edge="1" parent="1" source="FGRV-jPOa7Bt_ttK2mDu-36" target="6liUaRjq4ee-JJZJIJKL-24">
          <mxGeometry relative="1" as="geometry">
            <mxPoint x="400" y="600" as="sourcePoint" />
          </mxGeometry>
        </mxCell>
        <mxCell id="SEIKMSco89WO36H-kESX-9" value="" style="endArrow=none;html=1;rounded=0;exitX=1;exitY=0.5;exitDx=0;exitDy=0;endFill=0;" edge="1" parent="1" source="vSEJAMV8AOCwIulH-8fq-10" target="6liUaRjq4ee-JJZJIJKL-24">
          <mxGeometry width="50" height="50" relative="1" as="geometry">
            <mxPoint x="443" y="136" as="sourcePoint" />
            <mxPoint x="910" y="201" as="targetPoint" />
          </mxGeometry>
        </mxCell>
        <mxCell id="RjbsoYbdOa2Ps-iQJeub-10" style="rounded=0;orthogonalLoop=1;jettySize=auto;html=1;entryX=0;entryY=0.5;entryDx=0;entryDy=0;endArrow=none;endFill=0;" edge="1" parent="1" source="FGRV-jPOa7Bt_ttK2mDu-4" target="vSEJAMV8AOCwIulH-8fq-8">
          <mxGeometry relative="1" as="geometry">
            <mxPoint x="20" y="167" as="sourcePoint" />
            <mxPoint x="-100" y="220" as="targetPoint" />
          </mxGeometry>
        </mxCell>
        <mxCell id="u9TTm9YRt9H3GNrM990v-10" value="" style="endArrow=none;html=1;rounded=0;entryX=0;entryY=0.5;entryDx=0;entryDy=0;" edge="1" parent="1" source="FGRV-jPOa7Bt_ttK2mDu-4" target="IPIbO-tEIP0OXKtyJFdB-3">
          <mxGeometry width="50" height="50" relative="1" as="geometry">
            <mxPoint x="-320" y="640" as="sourcePoint" />
            <mxPoint x="270" y="1530" as="targetPoint" />
          </mxGeometry>
        </mxCell>
        <mxCell id="RjbsoYbdOa2Ps-iQJeub-8" style="rounded=0;orthogonalLoop=1;jettySize=auto;html=1;entryX=0;entryY=0;entryDx=0;entryDy=0;endArrow=none;endFill=0;" edge="1" parent="1" source="FGRV-jPOa7Bt_ttK2mDu-4" target="FGRV-jPOa7Bt_ttK2mDu-36">
          <mxGeometry relative="1" as="geometry">
            <mxPoint x="20" y="300" as="sourcePoint" />
            <mxPoint x="310" y="290" as="targetPoint" />
          </mxGeometry>
        </mxCell>
        <mxCell id="vSEJAMV8AOCwIulH-8fq-129" value="" style="endArrow=none;html=1;rounded=0;endFill=0;entryX=0.5;entryY=0;entryDx=0;entryDy=0;" edge="1" parent="1" source="FGRV-jPOa7Bt_ttK2mDu-4" target="zY7k--wOiJBElIzQp6EA-167">
          <mxGeometry width="50" height="50" relative="1" as="geometry">
            <mxPoint x="-320" y="440" as="sourcePoint" />
            <mxPoint x="210" y="1070" as="targetPoint" />
          </mxGeometry>
        </mxCell>
        <mxCell id="SEIKMSco89WO36H-kESX-36" value="" style="endArrow=none;startArrow=none;html=1;rounded=0;exitX=1;exitY=0;exitDx=0;exitDy=0;endFill=0;startFill=0;" edge="1" parent="1" source="vSEJAMV8AOCwIulH-8fq-11" target="6liUaRjq4ee-JJZJIJKL-24">
          <mxGeometry width="50" height="50" relative="1" as="geometry">
            <mxPoint x="320" y="430" as="sourcePoint" />
            <mxPoint x="890" y="200" as="targetPoint" />
          </mxGeometry>
        </mxCell>
        <mxCell id="5Qc9jVIZuvr2kZ-lx2it-5" value="" style="endArrow=none;html=1;rounded=0;exitX=1;exitY=0;exitDx=0;exitDy=0;endFill=0;" edge="1" parent="1" source="FGRV-jPOa7Bt_ttK2mDu-36" target="zY7k--wOiJBElIzQp6EA-121">
          <mxGeometry width="50" height="50" relative="1" as="geometry">
            <mxPoint x="510" y="470" as="sourcePoint" />
            <mxPoint x="560" y="420" as="targetPoint" />
          </mxGeometry>
        </mxCell>
        <mxCell id="6liUaRjq4ee-JJZJIJKL-24" value="&amp;nbsp;Database" style="shape=umlActor;verticalLabelPosition=bottom;verticalAlign=top;html=1;outlineConnect=0;" vertex="1" parent="1">
          <mxGeometry x="820" y="85" width="60" height="120" as="geometry" />
        </mxCell>
        <mxCell id="FGRV-jPOa7Bt_ttK2mDu-7" style="rounded=0;orthogonalLoop=1;jettySize=auto;html=1;entryX=0;entryY=0.5;entryDx=0;entryDy=0;endArrow=none;endFill=0;" edge="1" parent="1" target="vSEJAMV8AOCwIulH-8fq-8">
          <mxGeometry relative="1" as="geometry" />
        </mxCell>
        <mxCell id="zY7k--wOiJBElIzQp6EA-121" value="Maps API" style="shape=umlActor;verticalLabelPosition=bottom;verticalAlign=top;html=1;outlineConnect=0;" vertex="1" parent="1">
          <mxGeometry x="700" y="689.5799999999999" width="60" height="120" as="geometry" />
        </mxCell>
        <mxCell id="6liUaRjq4ee-JJZJIJKL-23" value="PayPal&amp;nbsp;&lt;div&gt;API&lt;/div&gt;" style="shape=umlActor;verticalLabelPosition=bottom;verticalAlign=top;html=1;outlineConnect=0;" vertex="1" parent="1">
          <mxGeometry x="800" y="1700" width="60" height="120" as="geometry" />
        </mxCell>
        <mxCell id="FGRV-jPOa7Bt_ttK2mDu-76" style="rounded=0;orthogonalLoop=1;jettySize=auto;html=1;endArrow=none;endFill=0;" edge="1" parent="1" source="IPIbO-tEIP0OXKtyJFdB-3" target="6liUaRjq4ee-JJZJIJKL-24">
          <mxGeometry relative="1" as="geometry" />
        </mxCell>
        <mxCell id="SEIKMSco89WO36H-kESX-33" style="rounded=0;orthogonalLoop=1;jettySize=auto;html=1;dashed=1;entryX=0;entryY=0;entryDx=0;entryDy=0;exitX=1;exitY=1;exitDx=0;exitDy=0;" edge="1" parent="1" source="SEIKMSco89WO36H-kESX-22" target="SEIKMSco89WO36H-kESX-32">
          <mxGeometry relative="1" as="geometry">
            <mxPoint x="433.7906137184116" y="210.62176165803112" as="sourcePoint" />
            <mxPoint x="464.115523465704" y="162.53886010362697" as="targetPoint" />
          </mxGeometry>
        </mxCell>
        <mxCell id="SEIKMSco89WO36H-kESX-34" value="&amp;lt;&amp;lt;include&amp;gt;&amp;gt;" style="edgeLabel;html=1;align=center;verticalAlign=middle;resizable=0;points=[];" connectable="0" vertex="1" parent="SEIKMSco89WO36H-kESX-33">
          <mxGeometry x="-0.095" y="-2" relative="1" as="geometry">
            <mxPoint as="offset" />
          </mxGeometry>
        </mxCell>
        <mxCell id="SEIKMSco89WO36H-kESX-29" style="rounded=0;orthogonalLoop=1;jettySize=auto;html=1;dashed=1;entryX=1;entryY=0;entryDx=0;entryDy=0;exitX=0.092;exitY=0.78;exitDx=0;exitDy=0;exitPerimeter=0;" edge="1" parent="1" source="SEIKMSco89WO36H-kESX-22" target="SEIKMSco89WO36H-kESX-28">
          <mxGeometry relative="1" as="geometry">
            <mxPoint x="373.1407942238267" y="246.68393782383424" as="sourcePoint" />
            <mxPoint x="464.115523465704" y="246.68393782383424" as="targetPoint" />
          </mxGeometry>
        </mxCell>
        <mxCell id="SEIKMSco89WO36H-kESX-30" value="&amp;lt;&amp;lt;include&amp;gt;&amp;gt;" style="edgeLabel;html=1;align=center;verticalAlign=middle;resizable=0;points=[];" connectable="0" vertex="1" parent="SEIKMSco89WO36H-kESX-29">
          <mxGeometry x="-0.095" y="-2" relative="1" as="geometry">
            <mxPoint as="offset" />
          </mxGeometry>
        </mxCell>
        <mxCell id="vSEJAMV8AOCwIulH-8fq-11" value="View Account Details" style="ellipse;whiteSpace=wrap;html=1;fillColor=#e1d5e7;strokeColor=#9673a6;" vertex="1" parent="1">
          <mxGeometry x="309.4475812274368" y="100.00031088082903" width="101.08303249097472" height="50" as="geometry" />
        </mxCell>
        <mxCell id="6liUaRjq4ee-JJZJIJKL-4" value="" style="endArrow=none;html=1;rounded=0;" edge="1" parent="1">
          <mxGeometry width="50" height="50" relative="1" as="geometry">
            <mxPoint x="80" y="1860" as="sourcePoint" />
            <mxPoint x="80" y="-160" as="targetPoint" />
          </mxGeometry>
        </mxCell>
        <mxCell id="6liUaRjq4ee-JJZJIJKL-7" value="" style="endArrow=none;html=1;rounded=0;" edge="1" parent="1">
          <mxGeometry width="50" height="50" relative="1" as="geometry">
            <mxPoint x="79.99" y="-160" as="sourcePoint" />
            <mxPoint x="639.99" y="-160" as="targetPoint" />
          </mxGeometry>
        </mxCell>
        <mxCell id="FGRV-jPOa7Bt_ttK2mDu-82" value="" style="endArrow=none;html=1;rounded=0;" edge="1" parent="1">
          <mxGeometry width="50" height="50" relative="1" as="geometry">
            <mxPoint x="80.16" y="1860" as="sourcePoint" />
            <mxPoint x="640.16" y="1860" as="targetPoint" />
          </mxGeometry>
        </mxCell>
        <mxCell id="5Qc9jVIZuvr2kZ-lx2it-52" value="ShopBlock System" style="text;html=1;align=center;verticalAlign=middle;whiteSpace=wrap;rounded=0;fontSize=23;" vertex="1" parent="1">
          <mxGeometry x="226.34879999999995" y="-147.003125" width="267.30119999999994" height="18.588461538461537" as="geometry" />
        </mxCell>
        <mxCell id="IPIbO-tEIP0OXKtyJFdB-58" value="Report Listing" style="ellipse;whiteSpace=wrap;html=1;fillColor=#e1d5e7;strokeColor=#9673a6;" vertex="1" parent="1">
          <mxGeometry x="342.44" y="1288.16" width="101.19" height="37.37" as="geometry" />
        </mxCell>
        <mxCell id="zY7k--wOiJBElIzQp6EA-129" value="" style="endArrow=none;html=1;rounded=0;" edge="1" parent="1">
          <mxGeometry width="50" height="50" relative="1" as="geometry">
            <mxPoint x="100" y="1020" as="sourcePoint" />
            <mxPoint x="620" y="1020" as="targetPoint" />
          </mxGeometry>
        </mxCell>
        <mxCell id="zY7k--wOiJBElIzQp6EA-206" value="" style="endArrow=none;html=1;rounded=0;" edge="1" parent="1">
          <mxGeometry width="50" height="50" relative="1" as="geometry">
            <mxPoint x="100" y="310" as="sourcePoint" />
            <mxPoint x="100" y="-110" as="targetPoint" />
          </mxGeometry>
        </mxCell>
        <mxCell id="zY7k--wOiJBElIzQp6EA-207" value="" style="endArrow=none;html=1;rounded=0;" edge="1" parent="1">
          <mxGeometry width="50" height="50" relative="1" as="geometry">
            <mxPoint x="100" y="310" as="sourcePoint" />
            <mxPoint x="620" y="310" as="targetPoint" />
          </mxGeometry>
        </mxCell>
        <mxCell id="zY7k--wOiJBElIzQp6EA-208" value="" style="endArrow=none;html=1;rounded=0;" edge="1" parent="1">
          <mxGeometry width="50" height="50" relative="1" as="geometry">
            <mxPoint x="620" y="310" as="sourcePoint" />
            <mxPoint x="620" y="-110" as="targetPoint" />
          </mxGeometry>
        </mxCell>
        <mxCell id="zY7k--wOiJBElIzQp6EA-209" value="" style="endArrow=none;html=1;rounded=0;" edge="1" parent="1">
          <mxGeometry width="50" height="50" relative="1" as="geometry">
            <mxPoint x="100" y="-110" as="sourcePoint" />
            <mxPoint x="620" y="-110" as="targetPoint" />
          </mxGeometry>
        </mxCell>
        <mxCell id="zY7k--wOiJBElIzQp6EA-175" value="User Account Management System" style="text;html=1;align=center;verticalAlign=middle;whiteSpace=wrap;rounded=0;" vertex="1" parent="1">
          <mxGeometry x="223.7281882352941" y="-100.00312500000001" width="272.54239999999993" height="18.588461538461537" as="geometry" />
        </mxCell>
        <mxCell id="SEIKMSco89WO36H-kESX-32" value="Edit User Details" style="ellipse;whiteSpace=wrap;html=1;fillColor=#e1d5e7;strokeColor=#9673a6;" vertex="1" parent="1">
          <mxGeometry x="443.5179422382671" y="250.00345725465206" width="101.08303249097472" height="50" as="geometry" />
        </mxCell>
        <mxCell id="vSEJAMV8AOCwIulH-8fq-8" value="Register" style="ellipse;whiteSpace=wrap;html=1;fillColor=#e1d5e7;strokeColor=#9673a6;" vertex="1" parent="1">
          <mxGeometry x="170.9756678700361" y="-75.03699656517435" width="94.32057761732851" height="50" as="geometry" />
        </mxCell>
        <mxCell id="vSEJAMV8AOCwIulH-8fq-10" value="Login" style="ellipse;whiteSpace=wrap;html=1;fillColor=#e1d5e7;strokeColor=#9673a6;" vertex="1" parent="1">
          <mxGeometry x="180.00314079422384" y="3.8506321795056806" width="101.0830324909747" height="50" as="geometry" />
        </mxCell>
        <mxCell id="SEIKMSco89WO36H-kESX-28" value="Change Password" style="ellipse;whiteSpace=wrap;html=1;fillColor=#e1d5e7;strokeColor=#9673a6;" vertex="1" parent="1">
          <mxGeometry x="220.00061371841156" y="240.00230078164498" width="101.08303249097472" height="50" as="geometry" />
        </mxCell>
        <mxCell id="3b8tJ2Yj7acl9Bm1y2Xi-4" value="" style="edgeStyle=orthogonalEdgeStyle;rounded=0;orthogonalLoop=1;jettySize=auto;html=1;dashed=1;" edge="1" parent="1" source="SEIKMSco89WO36H-kESX-22" target="3b8tJ2Yj7acl9Bm1y2Xi-1">
          <mxGeometry relative="1" as="geometry" />
        </mxCell>
        <mxCell id="SEIKMSco89WO36H-kESX-22" value="Manage Account Details" style="ellipse;whiteSpace=wrap;html=1;fillColor=#e1d5e7;strokeColor=#9673a6;" vertex="1" parent="1">
          <mxGeometry x="342.4387364620939" y="180.0007211295399" width="101.08303249097472" height="50" as="geometry" />
        </mxCell>
        <mxCell id="SEIKMSco89WO36H-kESX-1" value="Forget Password" style="ellipse;whiteSpace=wrap;html=1;fillColor=#e1d5e7;strokeColor=#9673a6;" vertex="1" parent="1">
          <mxGeometry x="149.99938628158844" y="109.99681976817226" width="101.08303249097472" height="50" as="geometry" />
        </mxCell>
        <mxCell id="zY7k--wOiJBElIzQp6EA-119" value="" style="rounded=0;orthogonalLoop=1;jettySize=auto;html=1;dashed=1;entryX=0.5;entryY=1;entryDx=0;entryDy=0;" edge="1" parent="1" target="vSEJAMV8AOCwIulH-8fq-10">
          <mxGeometry relative="1" as="geometry">
            <mxPoint x="198" y="110" as="sourcePoint" />
            <mxPoint x="198" y="60" as="targetPoint" />
          </mxGeometry>
        </mxCell>
        <mxCell id="zY7k--wOiJBElIzQp6EA-120" value="&amp;lt;&amp;lt;extends&amp;gt;&amp;gt;" style="edgeLabel;html=1;align=center;verticalAlign=middle;resizable=0;points=[];" connectable="0" vertex="1" parent="zY7k--wOiJBElIzQp6EA-119">
          <mxGeometry x="-0.095" y="-2" relative="1" as="geometry">
            <mxPoint as="offset" />
          </mxGeometry>
        </mxCell>
        <mxCell id="zY7k--wOiJBElIzQp6EA-4" value="" style="endArrow=none;html=1;rounded=0;" edge="1" parent="1">
          <mxGeometry width="50" height="50" relative="1" as="geometry">
            <mxPoint x="100" y="1600" as="sourcePoint" />
            <mxPoint x="100" y="1020" as="targetPoint" />
          </mxGeometry>
        </mxCell>
        <mxCell id="zY7k--wOiJBElIzQp6EA-5" value="" style="endArrow=none;html=1;rounded=0;" edge="1" parent="1">
          <mxGeometry width="50" height="50" relative="1" as="geometry">
            <mxPoint x="100.32" y="1600" as="sourcePoint" />
            <mxPoint x="620.3200000000002" y="1600" as="targetPoint" />
          </mxGeometry>
        </mxCell>
        <mxCell id="zY7k--wOiJBElIzQp6EA-6" value="" style="endArrow=none;html=1;rounded=0;" edge="1" parent="1">
          <mxGeometry width="50" height="50" relative="1" as="geometry">
            <mxPoint x="620" y="1600" as="sourcePoint" />
            <mxPoint x="620" y="1020" as="targetPoint" />
            <Array as="points" />
          </mxGeometry>
        </mxCell>
        <mxCell id="FGRV-jPOa7Bt_ttK2mDu-58" style="rounded=0;orthogonalLoop=1;jettySize=auto;html=1;entryX=0.3;entryY=0.929;entryDx=0;entryDy=0;dashed=1;endArrow=none;endFill=0;startArrow=classic;startFill=1;entryPerimeter=0;" edge="1" parent="1" source="zY7k--wOiJBElIzQp6EA-10" target="vSEJAMV8AOCwIulH-8fq-128">
          <mxGeometry relative="1" as="geometry" />
        </mxCell>
        <mxCell id="FGRV-jPOa7Bt_ttK2mDu-59" value="&amp;lt;&amp;lt;include&amp;gt;&amp;gt;" style="edgeLabel;html=1;align=center;verticalAlign=middle;resizable=0;points=[];" connectable="0" vertex="1" parent="FGRV-jPOa7Bt_ttK2mDu-58">
          <mxGeometry x="-0.2159" y="-4" relative="1" as="geometry">
            <mxPoint y="-5" as="offset" />
          </mxGeometry>
        </mxCell>
        <mxCell id="zY7k--wOiJBElIzQp6EA-10" value="Accept Offer" style="ellipse;whiteSpace=wrap;html=1;fillColor=#e1d5e7;strokeColor=#9673a6;" vertex="1" parent="1">
          <mxGeometry x="188.04" y="1473.66" width="101.96" height="36.34" as="geometry" />
        </mxCell>
        <mxCell id="vSEJAMV8AOCwIulH-8fq-128" value="Manage Offer" style="ellipse;whiteSpace=wrap;html=1;fillColor=#e1d5e7;strokeColor=#9673a6;" vertex="1" parent="1">
          <mxGeometry x="180" y="1380" width="101.96" height="40" as="geometry" />
        </mxCell>
        <mxCell id="FGRV-jPOa7Bt_ttK2mDu-55" style="rounded=0;orthogonalLoop=1;jettySize=auto;html=1;entryX=0.687;entryY=0.969;entryDx=0;entryDy=0;dashed=1;endArrow=none;endFill=0;startArrow=classic;startFill=1;entryPerimeter=0;" edge="1" parent="1" source="RnZGxTFbu4Ivhvp2LIRu-12" target="vSEJAMV8AOCwIulH-8fq-128">
          <mxGeometry relative="1" as="geometry" />
        </mxCell>
        <mxCell id="FGRV-jPOa7Bt_ttK2mDu-60" value="&amp;lt;&amp;lt;include&amp;gt;&amp;gt;" style="edgeLabel;html=1;align=center;verticalAlign=middle;resizable=0;points=[];" connectable="0" vertex="1" parent="FGRV-jPOa7Bt_ttK2mDu-55">
          <mxGeometry x="-0.0548" relative="1" as="geometry">
            <mxPoint y="-1" as="offset" />
          </mxGeometry>
        </mxCell>
        <mxCell id="RnZGxTFbu4Ivhvp2LIRu-12" value="Reject Offer" style="ellipse;whiteSpace=wrap;html=1;fillColor=#e1d5e7;strokeColor=#9673a6;" vertex="1" parent="1">
          <mxGeometry x="336.72" y="1460" width="101.96" height="36.34" as="geometry" />
        </mxCell>
        <mxCell id="zY7k--wOiJBElIzQp6EA-130" value="Browsing System" style="text;html=1;align=center;verticalAlign=middle;whiteSpace=wrap;rounded=0;" vertex="1" parent="1">
          <mxGeometry x="215.298909100159" y="1029.9985263157896" width="269.1281246422893" height="12.876206315789474" as="geometry" />
        </mxCell>
        <mxCell id="IPIbO-tEIP0OXKtyJFdB-23" value="Filter Listing" style="ellipse;whiteSpace=wrap;html=1;fillColor=#e1d5e7;strokeColor=#9673a6;" vertex="1" parent="1">
          <mxGeometry x="299.269420312823" y="1070.004129342105" width="101.1852" height="53.68144736842106" as="geometry" />
        </mxCell>
        <mxCell id="zY7k--wOiJBElIzQp6EA-167" value="Search Listing" style="ellipse;whiteSpace=wrap;html=1;fillColor=#e1d5e7;strokeColor=#9673a6;" vertex="1" parent="1">
          <mxGeometry x="119.50102649564829" y="1070.004129342105" width="101.1852" height="53.68144736842106" as="geometry" />
        </mxCell>
        <mxCell id="4G50xA5zq7QkWOQYK6P0-107" style="rounded=0;orthogonalLoop=1;jettySize=auto;html=1;entryX=0;entryY=0.5;entryDx=0;entryDy=0;dashed=1;endArrow=none;endFill=0;startArrow=classic;startFill=1;" edge="1" parent="1" source="zY7k--wOiJBElIzQp6EA-167" target="IPIbO-tEIP0OXKtyJFdB-23">
          <mxGeometry relative="1" as="geometry">
            <mxPoint x="446.33229116378453" y="1316.0700000000002" as="sourcePoint" />
            <mxPoint x="505.650877685885" y="1248.0700000000002" as="targetPoint" />
          </mxGeometry>
        </mxCell>
        <mxCell id="4G50xA5zq7QkWOQYK6P0-108" value="&amp;lt;&amp;lt;extend&amp;gt;&amp;gt;" style="edgeLabel;html=1;align=center;verticalAlign=middle;resizable=0;points=[];" connectable="0" vertex="1" parent="4G50xA5zq7QkWOQYK6P0-107">
          <mxGeometry x="0.016" relative="1" as="geometry">
            <mxPoint x="7" y="3" as="offset" />
          </mxGeometry>
        </mxCell>
        <mxCell id="zY7k--wOiJBElIzQp6EA-233" value="Select Price Range" style="ellipse;whiteSpace=wrap;html=1;fillColor=#e1d5e7;strokeColor=#9673a6;" vertex="1" parent="1">
          <mxGeometry x="359.51000000000005" y="1146.32" width="90.49" height="53.68" as="geometry" />
        </mxCell>
        <mxCell id="zY7k--wOiJBElIzQp6EA-234" value="Select Category" style="ellipse;whiteSpace=wrap;html=1;fillColor=#e1d5e7;strokeColor=#9673a6;" vertex="1" parent="1">
          <mxGeometry x="235.50000000000003" y="1146.32" width="90.49" height="53.68" as="geometry" />
        </mxCell>
        <mxCell id="zY7k--wOiJBElIzQp6EA-245" value="Sorting order" style="ellipse;whiteSpace=wrap;html=1;fillColor=#e1d5e7;strokeColor=#9673a6;" vertex="1" parent="1">
          <mxGeometry x="478.94999999999993" y="1042.87" width="79.87" height="48.16" as="geometry" />
        </mxCell>
        <mxCell id="zY7k--wOiJBElIzQp6EA-248" value="Open Listing Details" style="ellipse;whiteSpace=wrap;html=1;fillColor=#e1d5e7;strokeColor=#9673a6;" vertex="1" parent="1">
          <mxGeometry x="125.15942031282302" y="1280.004129342105" width="101.1852" height="53.68144736842106" as="geometry" />
        </mxCell>
        <mxCell id="zY7k--wOiJBElIzQp6EA-249" style="rounded=0;orthogonalLoop=1;jettySize=auto;html=1;dashed=1;endArrow=none;endFill=0;startArrow=classic;startFill=1;exitX=0;exitY=0;exitDx=0;exitDy=0;entryX=0.5;entryY=1;entryDx=0;entryDy=0;" edge="1" parent="1" source="zY7k--wOiJBElIzQp6EA-248" target="zY7k--wOiJBElIzQp6EA-167">
          <mxGeometry relative="1" as="geometry">
            <mxPoint x="201" y="1132" as="sourcePoint" />
            <mxPoint x="231" y="1186" as="targetPoint" />
          </mxGeometry>
        </mxCell>
        <mxCell id="zY7k--wOiJBElIzQp6EA-250" value="&amp;lt;&amp;lt;include&amp;gt;&amp;gt;" style="edgeLabel;html=1;align=center;verticalAlign=middle;resizable=0;points=[];" connectable="0" vertex="1" parent="zY7k--wOiJBElIzQp6EA-249">
          <mxGeometry x="0.016" relative="1" as="geometry">
            <mxPoint x="3" y="47" as="offset" />
          </mxGeometry>
        </mxCell>
        <mxCell id="zY7k--wOiJBElIzQp6EA-251" value="" style="endArrow=none;html=1;rounded=0;endFill=0;" edge="1" parent="1">
          <mxGeometry width="50" height="50" relative="1" as="geometry">
            <mxPoint x="-210" y="690" as="sourcePoint" />
            <mxPoint x="130" y="1290" as="targetPoint" />
          </mxGeometry>
        </mxCell>
        <mxCell id="zY7k--wOiJBElIzQp6EA-256" style="rounded=0;orthogonalLoop=1;jettySize=auto;html=1;dashed=1;endArrow=none;endFill=0;startArrow=classic;startFill=1;exitX=0;exitY=0;exitDx=0;exitDy=0;" edge="1" parent="1" source="IPIbO-tEIP0OXKtyJFdB-58">
          <mxGeometry relative="1" as="geometry">
            <mxPoint x="150" y="1298" as="sourcePoint" />
            <mxPoint x="230" y="1302" as="targetPoint" />
          </mxGeometry>
        </mxCell>
        <mxCell id="zY7k--wOiJBElIzQp6EA-257" value="&amp;lt;&amp;lt;include&amp;gt;&amp;gt;" style="edgeLabel;html=1;align=center;verticalAlign=middle;resizable=0;points=[];" connectable="0" vertex="1" parent="zY7k--wOiJBElIzQp6EA-256">
          <mxGeometry x="0.016" relative="1" as="geometry">
            <mxPoint x="4" y="6" as="offset" />
          </mxGeometry>
        </mxCell>
        <mxCell id="zY7k--wOiJBElIzQp6EA-258" style="rounded=0;orthogonalLoop=1;jettySize=auto;html=1;exitX=0.613;exitY=0.97;exitDx=0;exitDy=0;dashed=1;endArrow=none;endFill=0;startArrow=classic;startFill=1;entryX=0;entryY=0;entryDx=0;entryDy=0;exitPerimeter=0;" edge="1" parent="1" source="zY7k--wOiJBElIzQp6EA-248" target="vSEJAMV8AOCwIulH-8fq-128">
          <mxGeometry relative="1" as="geometry">
            <mxPoint x="206.04000000000002" y="1350" as="sourcePoint" />
            <mxPoint x="195.04000000000002" y="1422" as="targetPoint" />
          </mxGeometry>
        </mxCell>
        <mxCell id="zY7k--wOiJBElIzQp6EA-259" value="&amp;lt;&amp;lt;extend&amp;gt;&amp;gt;" style="edgeLabel;html=1;align=center;verticalAlign=middle;resizable=0;points=[];" connectable="0" vertex="1" parent="zY7k--wOiJBElIzQp6EA-258">
          <mxGeometry x="0.016" relative="1" as="geometry">
            <mxPoint x="15" y="5" as="offset" />
          </mxGeometry>
        </mxCell>
        <mxCell id="zY7k--wOiJBElIzQp6EA-263" style="rounded=0;orthogonalLoop=1;jettySize=auto;html=1;entryX=1;entryY=0.5;entryDx=0;entryDy=0;dashed=1;endArrow=none;endFill=0;startArrow=classic;startFill=1;" edge="1" parent="1" source="zY7k--wOiJBElIzQp6EA-265" target="vSEJAMV8AOCwIulH-8fq-128">
          <mxGeometry relative="1" as="geometry">
            <mxPoint x="140.17999999999998" y="1360" as="targetPoint" />
          </mxGeometry>
        </mxCell>
        <mxCell id="zY7k--wOiJBElIzQp6EA-264" value="&amp;lt;&amp;lt;include&amp;gt;&amp;gt;" style="edgeLabel;html=1;align=center;verticalAlign=middle;resizable=0;points=[];" connectable="0" vertex="1" parent="zY7k--wOiJBElIzQp6EA-263">
          <mxGeometry x="-0.2159" y="-4" relative="1" as="geometry">
            <mxPoint y="-5" as="offset" />
          </mxGeometry>
        </mxCell>
        <mxCell id="zY7k--wOiJBElIzQp6EA-265" value="Make Offer" style="ellipse;whiteSpace=wrap;html=1;fillColor=#e1d5e7;strokeColor=#9673a6;" vertex="1" parent="1">
          <mxGeometry x="443.63000000000005" y="1437.32" width="88.23" height="36.34" as="geometry" />
        </mxCell>
        <mxCell id="6liUaRjq4ee-JJZJIJKL-27" value="" style="endArrow=none;html=1;rounded=0;" edge="1" parent="1">
          <mxGeometry width="50" height="50" relative="1" as="geometry">
            <mxPoint x="100" y="980" as="sourcePoint" />
            <mxPoint x="100" y="670" as="targetPoint" />
          </mxGeometry>
        </mxCell>
        <mxCell id="6liUaRjq4ee-JJZJIJKL-28" value="" style="endArrow=none;html=1;rounded=0;" edge="1" parent="1">
          <mxGeometry width="50" height="50" relative="1" as="geometry">
            <mxPoint x="100" y="980" as="sourcePoint" />
            <mxPoint x="620.0000000000001" y="980" as="targetPoint" />
          </mxGeometry>
        </mxCell>
        <mxCell id="6liUaRjq4ee-JJZJIJKL-29" value="" style="endArrow=none;html=1;rounded=0;" edge="1" parent="1">
          <mxGeometry width="50" height="50" relative="1" as="geometry">
            <mxPoint x="620.0000000000001" y="980" as="sourcePoint" />
            <mxPoint x="620.0000000000001" y="670" as="targetPoint" />
            <Array as="points" />
          </mxGeometry>
        </mxCell>
        <mxCell id="6liUaRjq4ee-JJZJIJKL-30" value="" style="endArrow=none;html=1;rounded=0;" edge="1" parent="1">
          <mxGeometry width="50" height="50" relative="1" as="geometry">
            <mxPoint x="100" y="670" as="sourcePoint" />
            <mxPoint x="620.0000000000001" y="670" as="targetPoint" />
          </mxGeometry>
        </mxCell>
        <mxCell id="6liUaRjq4ee-JJZJIJKL-31" value="Listing System&amp;nbsp;" style="text;html=1;align=center;verticalAlign=middle;whiteSpace=wrap;rounded=0;" vertex="1" parent="1">
          <mxGeometry x="222.65078378378382" y="689.578947368421" width="274.68648648648644" height="14.308947368421055" as="geometry" />
        </mxCell>
        <mxCell id="FGRV-jPOa7Bt_ttK2mDu-36" value="Manage Listing" style="ellipse;whiteSpace=wrap;html=1;fillColor=#e1d5e7;strokeColor=#9673a6;" vertex="1" parent="1">
          <mxGeometry x="361.00479999999993" y="710.3495888157895" width="105.3" height="59.65460526315791" as="geometry" />
        </mxCell>
        <mxCell id="FGRV-jPOa7Bt_ttK2mDu-43" style="rounded=0;orthogonalLoop=1;jettySize=auto;html=1;exitX=0;exitY=0;exitDx=0;exitDy=0;entryX=1;entryY=0.5;entryDx=0;entryDy=0;dashed=1;startArrow=classic;startFill=1;endArrow=none;endFill=0;" edge="1" parent="1" source="FGRV-jPOa7Bt_ttK2mDu-37" target="FGRV-jPOa7Bt_ttK2mDu-36">
          <mxGeometry relative="1" as="geometry" />
        </mxCell>
        <mxCell id="FGRV-jPOa7Bt_ttK2mDu-46" value="&amp;lt;&amp;lt;include&amp;gt;&amp;gt;" style="edgeLabel;html=1;align=center;verticalAlign=middle;resizable=0;points=[];" connectable="0" vertex="1" parent="FGRV-jPOa7Bt_ttK2mDu-43">
          <mxGeometry x="-0.4711" y="-4" relative="1" as="geometry">
            <mxPoint as="offset" />
          </mxGeometry>
        </mxCell>
        <mxCell id="FGRV-jPOa7Bt_ttK2mDu-37" value="Delete Listing" style="ellipse;whiteSpace=wrap;html=1;fillColor=#e1d5e7;strokeColor=#9673a6;" vertex="1" parent="1">
          <mxGeometry x="504.4860919631198" y="760.0016321194888" width="105.3" height="59.65460526315791" as="geometry" />
        </mxCell>
        <mxCell id="FGRV-jPOa7Bt_ttK2mDu-41" style="rounded=0;orthogonalLoop=1;jettySize=auto;html=1;exitX=0.947;exitY=0.22;exitDx=0;exitDy=0;entryX=0;entryY=1;entryDx=0;entryDy=0;dashed=1;startArrow=classic;startFill=1;endArrow=none;endFill=0;exitPerimeter=0;" edge="1" parent="1" source="zY7k--wOiJBElIzQp6EA-297" target="FGRV-jPOa7Bt_ttK2mDu-36">
          <mxGeometry relative="1" as="geometry" />
        </mxCell>
        <mxCell id="Ln8zN0HA3ZuwD0kx-WDb-6" value="&amp;lt;&amp;lt;include&amp;gt;&amp;gt;" style="edgeLabel;html=1;align=center;verticalAlign=middle;resizable=0;points=[];" vertex="1" connectable="0" parent="FGRV-jPOa7Bt_ttK2mDu-41">
          <mxGeometry x="-0.0192" y="-7" relative="1" as="geometry">
            <mxPoint x="-4" y="-1" as="offset" />
          </mxGeometry>
        </mxCell>
        <mxCell id="FGRV-jPOa7Bt_ttK2mDu-38" value="Enter Listing Details" style="ellipse;whiteSpace=wrap;html=1;fillColor=#e1d5e7;strokeColor=#9673a6;" vertex="1" parent="1">
          <mxGeometry x="159.9980709113213" y="889.9981420133805" width="105.3" height="59.65460526315791" as="geometry" />
        </mxCell>
        <mxCell id="FGRV-jPOa7Bt_ttK2mDu-42" style="rounded=0;orthogonalLoop=1;jettySize=auto;html=1;exitX=1;exitY=0.5;exitDx=0;exitDy=0;entryX=0;entryY=0.5;entryDx=0;entryDy=0;dashed=1;endArrow=none;endFill=0;startArrow=classic;startFill=1;" edge="1" parent="1" source="FGRV-jPOa7Bt_ttK2mDu-39" target="FGRV-jPOa7Bt_ttK2mDu-36">
          <mxGeometry relative="1" as="geometry" />
        </mxCell>
        <mxCell id="FGRV-jPOa7Bt_ttK2mDu-45" value="&amp;lt;&amp;lt;include&amp;gt;&amp;gt;" style="edgeLabel;html=1;align=center;verticalAlign=middle;resizable=0;points=[];" connectable="0" vertex="1" parent="FGRV-jPOa7Bt_ttK2mDu-42">
          <mxGeometry x="0.016" relative="1" as="geometry">
            <mxPoint as="offset" />
          </mxGeometry>
        </mxCell>
        <mxCell id="FGRV-jPOa7Bt_ttK2mDu-39" value="Update Listing Details" style="ellipse;whiteSpace=wrap;html=1;fillColor=#e1d5e7;strokeColor=#9673a6;" vertex="1" parent="1">
          <mxGeometry x="119.49879783150647" y="710.3524494409686" width="105.3" height="59.65460526315791" as="geometry" />
        </mxCell>
        <mxCell id="zY7k--wOiJBElIzQp6EA-288" style="rounded=0;orthogonalLoop=1;jettySize=auto;html=1;entryX=1;entryY=0;entryDx=0;entryDy=0;dashed=1;startArrow=classic;startFill=1;endArrow=none;endFill=0;" edge="1" parent="1" source="zY7k--wOiJBElIzQp6EA-269" target="FGRV-jPOa7Bt_ttK2mDu-38">
          <mxGeometry relative="1" as="geometry">
            <mxPoint x="233" y="791" as="sourcePoint" />
            <mxPoint x="317" y="768" as="targetPoint" />
          </mxGeometry>
        </mxCell>
        <mxCell id="zY7k--wOiJBElIzQp6EA-289" value="&amp;lt;&amp;lt;include&amp;gt;&amp;gt;" style="edgeLabel;html=1;align=center;verticalAlign=middle;resizable=0;points=[];" connectable="0" vertex="1" parent="zY7k--wOiJBElIzQp6EA-288">
          <mxGeometry x="0.2443" y="-5" relative="1" as="geometry">
            <mxPoint as="offset" />
          </mxGeometry>
        </mxCell>
        <mxCell id="zY7k--wOiJBElIzQp6EA-297" value="Make New Listing" style="ellipse;whiteSpace=wrap;html=1;fillColor=#e1d5e7;strokeColor=#9673a6;" vertex="1" parent="1">
          <mxGeometry x="220.6880709113213" y="779.9981420133805" width="105.3" height="59.65460526315791" as="geometry" />
        </mxCell>
        <mxCell id="zY7k--wOiJBElIzQp6EA-298" style="rounded=0;orthogonalLoop=1;jettySize=auto;html=1;entryX=0.5;entryY=1;entryDx=0;entryDy=0;dashed=1;startArrow=classic;startFill=1;endArrow=none;endFill=0;exitX=0;exitY=0;exitDx=0;exitDy=0;" edge="1" parent="1" source="FGRV-jPOa7Bt_ttK2mDu-38" target="FGRV-jPOa7Bt_ttK2mDu-39">
          <mxGeometry relative="1" as="geometry">
            <mxPoint x="440" y="860" as="sourcePoint" />
            <mxPoint x="295" y="880" as="targetPoint" />
          </mxGeometry>
        </mxCell>
        <mxCell id="zY7k--wOiJBElIzQp6EA-299" value="&amp;lt;&amp;lt;includes&amp;gt;&amp;gt;" style="edgeLabel;html=1;align=center;verticalAlign=middle;resizable=0;points=[];" connectable="0" vertex="1" parent="zY7k--wOiJBElIzQp6EA-298">
          <mxGeometry x="0.2443" y="-5" relative="1" as="geometry">
            <mxPoint as="offset" />
          </mxGeometry>
        </mxCell>
        <mxCell id="zY7k--wOiJBElIzQp6EA-300" style="rounded=0;orthogonalLoop=1;jettySize=auto;html=1;entryX=0.113;entryY=0.819;entryDx=0;entryDy=0;dashed=1;startArrow=classic;startFill=1;endArrow=none;endFill=0;exitX=0.5;exitY=0;exitDx=0;exitDy=0;entryPerimeter=0;" edge="1" parent="1" source="FGRV-jPOa7Bt_ttK2mDu-38" target="zY7k--wOiJBElIzQp6EA-297">
          <mxGeometry relative="1" as="geometry">
            <mxPoint x="205" y="859" as="sourcePoint" />
            <mxPoint x="182" y="780" as="targetPoint" />
          </mxGeometry>
        </mxCell>
        <mxCell id="zY7k--wOiJBElIzQp6EA-301" value="&amp;lt;&amp;lt;include&amp;gt;&amp;gt;" style="edgeLabel;html=1;align=center;verticalAlign=middle;resizable=0;points=[];" connectable="0" vertex="1" parent="zY7k--wOiJBElIzQp6EA-300">
          <mxGeometry x="0.2443" y="-5" relative="1" as="geometry">
            <mxPoint as="offset" />
          </mxGeometry>
        </mxCell>
        <mxCell id="zY7k--wOiJBElIzQp6EA-302" value="" style="endArrow=none;html=1;rounded=0;endFill=0;exitX=1;exitY=0.5;exitDx=0;exitDy=0;" edge="1" parent="1" source="zY7k--wOiJBElIzQp6EA-269" target="zY7k--wOiJBElIzQp6EA-121">
          <mxGeometry width="50" height="50" relative="1" as="geometry">
            <mxPoint x="750" y="1530" as="sourcePoint" />
            <mxPoint x="805" y="819" as="targetPoint" />
          </mxGeometry>
        </mxCell>
        <mxCell id="zY7k--wOiJBElIzQp6EA-269" value="Select Location" style="ellipse;whiteSpace=wrap;html=1;fillColor=#e1d5e7;strokeColor=#9673a6;" vertex="1" parent="1">
          <mxGeometry x="478.94879783150645" y="830.3424494409686" width="105.3" height="59.65460526315791" as="geometry" />
        </mxCell>
        <mxCell id="vSEJAMV8AOCwIulH-8fq-18" value="Payment System" style="text;html=1;align=center;verticalAlign=middle;whiteSpace=wrap;rounded=0;" vertex="1" parent="1">
          <mxGeometry x="222.7370338599967" y="1660.478947106824" width="274.8555243243244" height="12.46263157894737" as="geometry" />
        </mxCell>
        <mxCell id="vSEJAMV8AOCwIulH-8fq-99" value="Enter Card details" style="ellipse;whiteSpace=wrap;html=1;fillColor=#e1d5e7;strokeColor=#9673a6;" vertex="1" parent="1">
          <mxGeometry x="182.02737019428574" y="1767.807728311792" width="154.69113600000003" height="32.389538179168134" as="geometry" />
        </mxCell>
        <mxCell id="vSEJAMV8AOCwIulH-8fq-127" value="Authorise Payment" style="ellipse;whiteSpace=wrap;html=1;fillColor=#e1d5e7;strokeColor=#9673a6;" vertex="1" parent="1">
          <mxGeometry x="287.3117064228571" y="1687.5170649469223" width="145.6896" height="43.548387096774185" as="geometry" />
        </mxCell>
        <mxCell id="zY7k--wOiJBElIzQp6EA-97" value="Produce Receipt" style="ellipse;whiteSpace=wrap;html=1;fillColor=#e1d5e7;strokeColor=#9673a6;" vertex="1" parent="1">
          <mxGeometry x="391.3792" y="1767.807728311792" width="154.69113600000003" height="32.389538179168134" as="geometry" />
        </mxCell>
        <mxCell id="zY7k--wOiJBElIzQp6EA-95" value="" style="endArrow=classic;html=1;rounded=0;dashed=1;exitX=0.218;exitY=0.121;exitDx=0;exitDy=0;exitPerimeter=0;" edge="1" parent="1" source="zY7k--wOiJBElIzQp6EA-97">
          <mxGeometry width="50" height="50" relative="1" as="geometry">
            <mxPoint x="401.78560000000004" y="1733.0257318664926" as="sourcePoint" />
            <mxPoint x="400" y="1730" as="targetPoint" />
          </mxGeometry>
        </mxCell>
        <mxCell id="zY7k--wOiJBElIzQp6EA-96" value="&amp;lt;&amp;lt;extend&amp;gt;&amp;gt;" style="edgeLabel;html=1;align=center;verticalAlign=middle;resizable=0;points=[];" connectable="0" vertex="1" parent="zY7k--wOiJBElIzQp6EA-95">
          <mxGeometry x="-0.2011" y="1" relative="1" as="geometry">
            <mxPoint as="offset" />
          </mxGeometry>
        </mxCell>
        <mxCell id="zY7k--wOiJBElIzQp6EA-93" value="" style="endArrow=classic;html=1;rounded=0;exitX=0;exitY=1;exitDx=0;exitDy=0;dashed=1;entryX=0.5;entryY=0;entryDx=0;entryDy=0;" edge="1" parent="1" source="vSEJAMV8AOCwIulH-8fq-127" target="vSEJAMV8AOCwIulH-8fq-99">
          <mxGeometry width="50" height="50" relative="1" as="geometry">
            <mxPoint x="495.4432000000001" y="1741.6347193734848" as="sourcePoint" />
            <mxPoint x="276.90880000000004" y="1827.7245944434085" as="targetPoint" />
          </mxGeometry>
        </mxCell>
        <mxCell id="zY7k--wOiJBElIzQp6EA-94" value="&amp;lt;&amp;lt;include&amp;gt;&amp;gt;" style="edgeLabel;html=1;align=center;verticalAlign=middle;resizable=0;points=[];" connectable="0" vertex="1" parent="zY7k--wOiJBElIzQp6EA-93">
          <mxGeometry x="-0.2011" y="1" relative="1" as="geometry">
            <mxPoint as="offset" />
          </mxGeometry>
        </mxCell>
        <mxCell id="zY7k--wOiJBElIzQp6EA-315" value="" style="group" connectable="0" vertex="1" parent="1">
          <mxGeometry x="100" y="1649" width="520.32" height="181" as="geometry" />
        </mxCell>
        <mxCell id="vSEJAMV8AOCwIulH-8fq-14" value="" style="endArrow=none;html=1;rounded=0;" edge="1" parent="zY7k--wOiJBElIzQp6EA-315">
          <mxGeometry width="50" height="50" relative="1" as="geometry">
            <mxPoint y="181" as="sourcePoint" />
            <mxPoint as="targetPoint" />
          </mxGeometry>
        </mxCell>
        <mxCell id="vSEJAMV8AOCwIulH-8fq-15" value="" style="endArrow=none;html=1;rounded=0;" edge="1" parent="zY7k--wOiJBElIzQp6EA-315">
          <mxGeometry width="50" height="50" relative="1" as="geometry">
            <mxPoint y="181" as="sourcePoint" />
            <mxPoint x="520.32" y="181" as="targetPoint" />
          </mxGeometry>
        </mxCell>
        <mxCell id="vSEJAMV8AOCwIulH-8fq-16" value="" style="endArrow=none;html=1;rounded=0;" edge="1" parent="zY7k--wOiJBElIzQp6EA-315">
          <mxGeometry width="50" height="50" relative="1" as="geometry">
            <mxPoint x="520.32" y="181" as="sourcePoint" />
            <mxPoint x="520.32" as="targetPoint" />
          </mxGeometry>
        </mxCell>
        <mxCell id="vSEJAMV8AOCwIulH-8fq-17" value="" style="endArrow=none;html=1;rounded=0;" edge="1" parent="zY7k--wOiJBElIzQp6EA-315">
          <mxGeometry width="50" height="50" relative="1" as="geometry">
            <mxPoint as="sourcePoint" />
            <mxPoint x="520.32" as="targetPoint" />
          </mxGeometry>
        </mxCell>
        <mxCell id="zY7k--wOiJBElIzQp6EA-316" value="View User Rating" style="ellipse;whiteSpace=wrap;html=1;fillColor=#e1d5e7;strokeColor=#9673a6;" vertex="1" parent="1">
          <mxGeometry x="336.72" y="1360" width="103.21" height="40" as="geometry" />
        </mxCell>
        <mxCell id="zY7k--wOiJBElIzQp6EA-320" style="rounded=0;orthogonalLoop=1;jettySize=auto;html=1;dashed=1;endArrow=none;endFill=0;startArrow=classic;startFill=1;exitX=0.084;exitY=0.297;exitDx=0;exitDy=0;entryX=0.976;entryY=0.747;entryDx=0;entryDy=0;entryPerimeter=0;exitPerimeter=0;" edge="1" parent="1" source="zY7k--wOiJBElIzQp6EA-316" target="zY7k--wOiJBElIzQp6EA-248">
          <mxGeometry relative="1" as="geometry">
            <mxPoint x="367" y="1304" as="sourcePoint" />
            <mxPoint x="233" y="1312" as="targetPoint" />
          </mxGeometry>
        </mxCell>
        <mxCell id="zY7k--wOiJBElIzQp6EA-321" value="&amp;lt;&amp;lt;include&amp;gt;&amp;gt;" style="edgeLabel;html=1;align=center;verticalAlign=middle;resizable=0;points=[];" connectable="0" vertex="1" parent="zY7k--wOiJBElIzQp6EA-320">
          <mxGeometry x="0.016" relative="1" as="geometry">
            <mxPoint x="4" y="6" as="offset" />
          </mxGeometry>
        </mxCell>
        <mxCell id="ErcqS616ycnQEbOa9xOG-2" value="" style="endArrow=none;html=1;rounded=0;exitX=0;exitY=1;exitDx=0;exitDy=0;entryX=0;entryY=1;entryDx=0;entryDy=0;entryPerimeter=0;" edge="1" parent="1" source="zY7k--wOiJBElIzQp6EA-248" target="6liUaRjq4ee-JJZJIJKL-24">
          <mxGeometry width="50" height="50" relative="1" as="geometry">
            <mxPoint x="280" y="740" as="sourcePoint" />
            <mxPoint x="1050" y="1490" as="targetPoint" />
            <Array as="points">
              <mxPoint x="176" y="1550" />
              <mxPoint x="770" y="1550" />
              <mxPoint x="780" y="1240" />
            </Array>
          </mxGeometry>
        </mxCell>
        <mxCell id="Ln8zN0HA3ZuwD0kx-WDb-2" style="rounded=0;orthogonalLoop=1;jettySize=auto;html=1;entryX=0.026;entryY=0.707;entryDx=0;entryDy=0;endArrow=none;endFill=0;entryPerimeter=0;" edge="1" parent="1" source="FGRV-jPOa7Bt_ttK2mDu-4" target="vSEJAMV8AOCwIulH-8fq-11">
          <mxGeometry relative="1" as="geometry">
            <mxPoint x="-210" y="643" as="sourcePoint" />
            <mxPoint x="357" y="206" as="targetPoint" />
            <Array as="points">
              <mxPoint x="170" y="230" />
            </Array>
          </mxGeometry>
        </mxCell>
        <mxCell id="Ln8zN0HA3ZuwD0kx-WDb-3" style="rounded=0;orthogonalLoop=1;jettySize=auto;html=1;dashed=1;entryX=0.689;entryY=0.958;entryDx=0;entryDy=0;exitX=0.5;exitY=0;exitDx=0;exitDy=0;entryPerimeter=0;" edge="1" parent="1" source="SEIKMSco89WO36H-kESX-22" target="vSEJAMV8AOCwIulH-8fq-11">
          <mxGeometry relative="1" as="geometry">
            <mxPoint x="439" y="233" as="sourcePoint" />
            <mxPoint x="475" y="257" as="targetPoint" />
          </mxGeometry>
        </mxCell>
        <mxCell id="Ln8zN0HA3ZuwD0kx-WDb-4" value="&amp;lt;&amp;lt;include&amp;gt;&amp;gt;" style="edgeLabel;html=1;align=center;verticalAlign=middle;resizable=0;points=[];" connectable="0" vertex="1" parent="Ln8zN0HA3ZuwD0kx-WDb-3">
          <mxGeometry x="-0.095" y="-2" relative="1" as="geometry">
            <mxPoint as="offset" />
          </mxGeometry>
        </mxCell>
        <mxCell id="NVvedLz53sPq_rURFMaf-1" style="rounded=0;orthogonalLoop=1;jettySize=auto;html=1;exitX=0.5;exitY=0;exitDx=0;exitDy=0;dashed=1;endArrow=none;endFill=0;startArrow=classic;startFill=1;entryX=0;entryY=1;entryDx=0;entryDy=0;" edge="1" parent="1" source="zY7k--wOiJBElIzQp6EA-234" target="IPIbO-tEIP0OXKtyJFdB-23">
          <mxGeometry relative="1" as="geometry">
            <mxPoint x="406.38" y="1372" as="sourcePoint" />
            <mxPoint x="391.38" y="1180" as="targetPoint" />
          </mxGeometry>
        </mxCell>
        <mxCell id="NVvedLz53sPq_rURFMaf-2" value="&amp;lt;&amp;lt;include&amp;gt;&amp;gt;" style="edgeLabel;html=1;align=center;verticalAlign=middle;resizable=0;points=[];" connectable="0" vertex="1" parent="NVvedLz53sPq_rURFMaf-1">
          <mxGeometry x="0.016" relative="1" as="geometry">
            <mxPoint x="-4" y="5" as="offset" />
          </mxGeometry>
        </mxCell>
        <mxCell id="NVvedLz53sPq_rURFMaf-5" style="rounded=0;orthogonalLoop=1;jettySize=auto;html=1;exitX=0.5;exitY=0;exitDx=0;exitDy=0;dashed=1;endArrow=none;endFill=0;startArrow=classic;startFill=1;entryX=0.737;entryY=0.928;entryDx=0;entryDy=0;entryPerimeter=0;" edge="1" parent="1" source="zY7k--wOiJBElIzQp6EA-233" target="IPIbO-tEIP0OXKtyJFdB-23">
          <mxGeometry relative="1" as="geometry">
            <mxPoint x="331" y="1220" as="sourcePoint" />
            <mxPoint x="345" y="1171" as="targetPoint" />
          </mxGeometry>
        </mxCell>
        <mxCell id="NVvedLz53sPq_rURFMaf-6" value="&amp;lt;&amp;lt;include&amp;gt;&amp;gt;" style="edgeLabel;html=1;align=center;verticalAlign=middle;resizable=0;points=[];" connectable="0" vertex="1" parent="NVvedLz53sPq_rURFMaf-5">
          <mxGeometry x="0.016" relative="1" as="geometry">
            <mxPoint x="5" y="2" as="offset" />
          </mxGeometry>
        </mxCell>
        <mxCell id="kAQIdPz4wNJHOuXARBqq-6" style="rounded=0;orthogonalLoop=1;jettySize=auto;html=1;dashed=1;endArrow=none;endFill=0;startArrow=classic;startFill=1;entryX=1.002;entryY=0.378;entryDx=0;entryDy=0;entryPerimeter=0;" edge="1" parent="1" source="zY7k--wOiJBElIzQp6EA-245" target="IPIbO-tEIP0OXKtyJFdB-23">
          <mxGeometry relative="1" as="geometry">
            <mxPoint x="250" y="1260" as="sourcePoint" />
            <mxPoint x="310" y="1210" as="targetPoint" />
            <Array as="points" />
          </mxGeometry>
        </mxCell>
        <mxCell id="kAQIdPz4wNJHOuXARBqq-7" value="&amp;lt;&amp;lt;include&amp;gt;&amp;gt;" style="edgeLabel;html=1;align=center;verticalAlign=middle;resizable=0;points=[];" connectable="0" vertex="1" parent="kAQIdPz4wNJHOuXARBqq-6">
          <mxGeometry x="0.016" relative="1" as="geometry">
            <mxPoint x="-6" y="-3" as="offset" />
          </mxGeometry>
        </mxCell>
        <mxCell id="3b8tJ2Yj7acl9Bm1y2Xi-1" value="Delete Account" style="ellipse;whiteSpace=wrap;html=1;fillColor=#e1d5e7;strokeColor=#9673a6;" vertex="1" parent="1">
          <mxGeometry x="514.2379422382671" y="154.99345725465207" width="101.08303249097472" height="50" as="geometry" />
        </mxCell>
        <mxCell id="3b8tJ2Yj7acl9Bm1y2Xi-5" value="&amp;lt;&amp;lt;include&amp;gt;&amp;gt;" style="edgeLabel;html=1;align=center;verticalAlign=middle;resizable=0;points=[];" connectable="0" vertex="1" parent="1">
          <mxGeometry x="478.9533193118445" y="189.99721169309424" as="geometry" />
        </mxCell>
      </root>
    </mxGraphModel>
  </diagram>
</mxfile>
